<svg width="32" height="32" viewBox="0 0 32 32" fill="none" xmlns="http://www.w3.org/2000/svg">
<circle cx="16" cy="16" r="15.5" fill="#EAF4FF" stroke="#F6F7F9"/>
<mask id="mask0_976_9441" style="mask-type:alpha" maskUnits="userSpaceOnUse" x="0" y="0" width="32" height="32">
<circle cx="16" cy="16" r="16" fill="#D9D9D9"/>
</mask>
<g mask="url(#mask0_976_9441)">
<path d="M16.6934 12.1837L14.9886 18.0285C14.2571 20.5366 16.5964 24.3603 13.9838 24.3603L12.7242 28.979" stroke="#0C86F7" stroke-width="11.7567" stroke-linecap="round"/>
<path d="M26.3508 13.0236H20.4725L20.8923 17.6423C24.9232 17.6423 26.4908 14.5632 26.3508 13.0236Z" fill="#0C86F7"/>
<path d="M26.7664 13.0236H24.2508L25.5104 15.5429C26.3502 14.7032 26.8263 14.1433 26.7664 13.0236Z" fill="#232426"/>
<path d="M8.81409 13.5171C11.3195 14.8772 13.9094 12.6188 15.4274 10.6777C16.2434 9.6342 15.788 8.22551 14.6238 7.59349C13.3342 6.89338 11.7211 7.4178 11.0898 8.74247L8.81409 13.5171Z" fill="#232426"/>
<rect width="11.7567" height="2.5193" transform="matrix(-1 8.74228e-08 8.74228e-08 1 22.3813 7.14526)" fill="#232426"/>
<path d="M21.9613 22.681L8.525 17.2225C3.90629 27.7195 4.74605 29.1215 4.32617 34.9999H26.9998C26.9998 30.2972 23.6408 25.3402 21.9613 22.681Z" fill="white"/>
<ellipse cx="22.3808" cy="8.40508" rx="0.839766" ry="2.09941" fill="white"/>
<path d="M11.4644 20.1617L17.3427 25.2003L20.2819 23.9406L23.2211 27.2997" stroke="#232426" stroke-width="0.839766" stroke-linecap="round"/>
</g>
</svg>
